<svg width="64" height="64" viewBox="0 0 64 64" fill="none" xmlns="http://www.w3.org/2000/svg">
<path d="M32 15.0001C21.1374 15.0001 15 21.1374 15 32.0001C15 42.8627 21.1374 49.0001 32 49.0001V39.1151C27.4377 39.1151 24.885 36.508 24.885 32.0001C24.885 27.4378 27.492 24.885 32 24.885C36.5623 24.885 39.115 27.4921 39.115 32.0001H49C49 21.1374 42.8626 15.0001 32 15.0001Z" fill="#0061FE"/>
<path d="M32.0008 24.8849V32H24.8857C24.8857 36.5623 27.4928 39.115 32.0008 39.115C36.5631 39.115 39.1158 36.508 39.1158 32C39.1158 27.4377 36.5631 24.8849 32.0008 24.8849Z" fill="#1E1919"/>
</svg>
