<svg width="64" height="64" viewBox="0 0 64 64" fill="none" xmlns="http://www.w3.org/2000/svg">
<path d="M25.9478 32C25.9478 35.5315 27.7853 37.6564 31.0415 38.0036V47H14.9521V38.0515C18.8069 38.0515 21.0036 35.8607 21.0036 32C21.0036 28.1453 18.8069 25.9485 14.9521 25.9485V17H31.0415V26.0024C27.7853 26.3376 25.9478 28.4745 25.9478 32Z" fill="#1E1919"/>
<path d="M42.9949 32C42.9949 35.8607 45.1917 38.0515 49.0464 38.0515V47H32.957V37.9976C36.2132 37.6564 38.0508 35.5255 38.0508 31.994C38.0508 28.4685 36.2132 26.3376 32.957 25.9964V17H49.0464V25.9485C45.1917 25.9485 42.9949 28.1453 42.9949 32Z" fill="#0061FE"/>
</svg>
